<svg xmlns="http://www.w3.org/2000/svg" viewBox="0 0 900 300" role="img" aria-labelledby="title desc">
  <title id="title">OrcaBench orca design reference</title>
  <desc id="desc">A black and white orca swims above a calm teal sea on a pale background.</desc>
  <rect width="900" height="300" rx="20" fill="#FAFCFC"/>
  <path d="M0 224 Q150 198 300 220 T600 220 T900 218 V300 H0Z" fill="#DDEEEF"/>
  <path d="M40 250 Q155 237 272 251 M650 250 Q750 237 852 250" fill="none" stroke="#086F73" stroke-width="3" stroke-linecap="round"/>
  <path d="M197 159 C252 120 306 109 364 108 C370 89 385 53 408 36 C412 66 421 91 433 108 C510 111 561 134 600 151 C624 158 644 151 673 134 L694 109 L689 142 L729 157 C708 166 689 171 670 163 C638 171 617 187 586 194 C494 221 356 213 270 192 C233 183 204 173 197 159Z" fill="#101820"/>
  <path d="M230 174 C303 179 354 163 387 161 C456 157 494 186 566 188 C507 211 361 204 278 186Z" fill="#FFFFFF"/>
  <path d="M389 177 C411 202 440 220 471 225 C459 200 450 181 442 171Z" fill="#101820"/>
  <ellipse cx="308" cy="139" rx="30" ry="12" transform="rotate(-13 308 139)" fill="#FFFFFF"/>
  <circle cx="252" cy="148" r="3" fill="#FFFFFF"/>
</svg>
